<?xml version="1.0" encoding="utf-8"?>
<!-- Generator: Adobe Illustrator 18.0.0, SVG Export Plug-In . SVG Version: 6.00 Build 0)  -->
<!DOCTYPE svg PUBLIC "-//W3C//DTD SVG 1.1//EN" "http://www.w3.org/Graphics/SVG/1.1/DTD/svg11.dtd">
<svg version="1.1" id="Layer_1" xmlns="http://www.w3.org/2000/svg" xmlns:xlink="http://www.w3.org/1999/xlink" x="0px" y="0px"
	 viewBox="0 0 600 600" enable-background="new 0 0 600 600" xml:space="preserve">
<path fill="#CD2027" d="M560.6,169.2c-0.1-0.3-0.2-0.6-0.3-1c-0.2-0.8-0.5-1.6-0.7-2.4c-0.1-0.2-0.1-0.4-0.2-0.6
	c-2.4-7.9-4.2-10.4-4.2-10.4v0c-11-22-32.9-37.6-58.7-39.6c-5.2-0.8-58.5-8.7-199.8-8.7l0,0l0,0c-149,0-200.2,8.8-200.2,8.8l0,0
	C71.3,117.7,49.8,133.2,39,155v0c0,0-1.8,2.5-4.2,10.4c-0.1,0.2-0.1,0.4-0.2,0.6c-0.2,0.7-0.4,1.5-0.7,2.3c-0.1,0.3-0.2,0.7-0.3,1
	C29,186.9,22.9,224.3,22.9,300c0,0,0,0,0,0s0,0,0,0c0,75.5,6,112.9,10.7,130.6c0.2,0.7,0.4,1.4,0.6,2.1c0,0.1,0.1,0.2,0.1,0.4
	c0.2,0.6,0.3,1.2,0.5,1.8C37.2,442.6,39,445,39,445v0c10.8,21.7,32.3,37.2,57.7,39.5c1.2,0.2,52.8,8.7,200.2,8.7l0,0l0,0
	c140.1,0,193.7-7.7,199.6-8.7c25.8-2,47.8-17.6,58.8-39.6v0c0,0,1.8-2.4,4.1-10.2c0.2-0.6,0.3-1.2,0.5-1.8c0-0.1,0.1-0.3,0.1-0.4
	c0.2-0.7,0.4-1.4,0.6-2c4.7-17.7,10.7-55.1,10.7-130.6c0,0,0,0,0,0c0,0,0,0,0,0C571.3,224.3,565.3,186.9,560.6,169.2z"/>
<polygon fill="#FFFFFF" points="238.4,381.8 238.4,221.4 390.1,300.9 "/>
</svg>
